<svg viewBox="0 0 190 83" fill="none" xmlns="http://www.w3.org/2000/svg">
<path d="M99.5294 12.8416L112.013 11.7597L125.412 24.3264L123.539 36.3937L110.348 37.7669L98.1979 24.576L99.5294 12.8416Z" fill="white"/>
<path d="M72.1491 15.5464L89.1266 6.93279L99.5294 12.8416L98.1979 24.2848L81.4701 32.6487L70.8175 26.8647L72.1491 15.5464Z" fill="white"/>
<path d="M70.7222 26.8493L61.6128 35.3188L63.9843 53.6129L74.9758 59.485L83.5958 51.6178L81.4502 32.6838L70.7222 26.8493Z" fill="white"/>
<path d="M102.409 53.6939L106.105 62.3933H120.177L128.677 46.9562L123.532 36.3805L110.198 37.7167L102.409 53.6939Z" fill="white"/>
<path d="M125.394 24.492L130.784 22.3109C135.892 31.4395 135.475 42.5947 134.627 47.0313H128.716L123.503 36.4045L125.394 24.492Z" fill="white"/>
<path d="M89.0397 6.96363V1.00143C100.712 -1.03742 111.065 3.22264 114.782 5.60753L112.047 11.71L99.5145 12.8323L89.0397 6.96363Z" fill="white"/>
<path d="M74.9384 59.471L75.8759 62.43H106.169L102.566 53.9924L83.6983 51.5607L74.9384 59.471Z" fill="white"/>
<path d="M64.0358 53.7301L58.956 57.0373C59.8238 59.1327 61.2578 61.4557 61.8663 62.3552H75.9681L74.9098 59.4978L64.0358 53.7301Z" fill="white"/>
<path d="M70.7709 26.8252L72.0933 15.3525L68.0546 11.2781C59.5055 18.5692 56.3913 29.4939 55.9028 34.0448L61.5498 35.2957L70.7709 26.8252Z" fill="white"/>
<path fill-rule="evenodd" clip-rule="evenodd" d="M128.041 62.4079C132.262 56.1245 134.724 48.5615 134.724 40.4233C134.724 18.6203 117.05 0.945574 95.2468 0.945574C73.4438 0.945574 55.7691 18.6203 55.7691 40.4233C55.7691 48.5615 58.2316 56.1245 62.4521 62.4079H61.3188C57.21 56.0799 54.8235 48.5303 54.8235 40.4233C54.8235 18.0981 72.9216 0 95.2468 0C117.572 0 135.67 18.0981 135.67 40.4233C135.67 48.5303 133.284 56.0799 129.175 62.4079H128.041Z" fill="black"/>
<path d="M64.5156 53.8977L59.0786 57.4436C54.5398 47.7988 55.1387 37.3502 56.0054 33.3315L62.1517 34.7498L64.5156 53.8977Z" fill="black"/>
<path d="M71.9982 16.1536L67.5887 11.5833C74.7978 4.08404 85.2184 1.38039 89.5276 0.965976V7.21849L71.9982 16.1536Z" fill="black"/>
<path d="M111.38 11.815L114.325 5.32425C124.836 11.2972 129.772 19.3465 130.927 22.6245L125.235 25.046L111.38 11.815Z" fill="black"/>
<path d="M128.372 46.4185H134.788C134.285 52.1458 130.555 59.4613 128.753 62.4031H119.619L128.372 46.4185Z" fill="black"/>
<path d="M80.8698 32.3103L98.2404 23.6818L110.88 37.6464L102.744 54.4872L83.1026 52.0652L80.8698 32.3103Z" fill="black"/>
<path fill-rule="evenodd" clip-rule="evenodd" d="M70.2922 26.565L61.4425 34.7533L62.0847 35.4474L70.8122 27.3721L81.8064 33.4044L82.2612 32.5754L71.2483 26.5328L72.5446 15.6547L71.6056 15.5428L70.2922 26.565Z" fill="black"/>
<path fill-rule="evenodd" clip-rule="evenodd" d="M98.976 13.0583L88.6641 7.27606L89.1266 6.4513L99.5866 12.3166L112.06 11.2889L112.137 12.2313L99.9071 13.2389L98.6311 24.422L97.6916 24.3148L98.976 13.0583Z" fill="black"/>
<path fill-rule="evenodd" clip-rule="evenodd" d="M123.12 35.9269L124.857 24.4917L125.792 24.6337L124.022 36.2874L129.095 46.8302L128.243 47.2402L123.25 36.8642L110.203 38.1689L110.109 37.228L123.12 35.9269Z" fill="black"/>
<path fill-rule="evenodd" clip-rule="evenodd" d="M102.847 53.5285L106.595 62.192L105.727 62.5674L101.979 53.9039L102.847 53.5285Z" fill="black"/>
<path fill-rule="evenodd" clip-rule="evenodd" d="M75.4612 59.6026L84.0027 51.9175L83.3702 51.2146L74.8403 58.8893L64.1679 53.2018L63.7232 54.0363L74.5257 59.7932L75.5248 62.6205L76.4164 62.3055L75.4612 59.6026Z" fill="black"/>
<path d="M1.16216 49.879H54.1143V62.4079H135.906V49.879H188.859L179.639 60.2803L188.859 69.4997H151.745V82.0285H38.2759V69.4997H1.16216L10.6179 60.2803L1.16216 49.879Z" fill="white"/>
<path fill-rule="evenodd" clip-rule="evenodd" d="M0.0933984 49.4062H54.5871V61.9351H135.434V49.4062H189.909L180.288 60.2608L190 69.9725H152.218V82.5013H37.8032V69.9725H0L9.96095 60.2605L0.0933984 49.4062ZM37.8032 69.0269V62.1791L52.7546 50.3518H2.23092L11.2748 60.3001L2.32432 69.0269H37.8032ZM53.6415 50.8558L39.6357 61.9351H53.6415V50.8558ZM38.7487 62.8807H151.272V81.5558H38.7487V62.8807ZM150.385 61.9351H136.379V50.8558L150.385 61.9351ZM137.266 50.3518H187.808L178.99 60.2999L187.717 69.0269H152.218V62.1791L137.266 50.3518Z" fill="black"/>
<path d="M49.9191 68.3096V76.3958H48.6772V79.1755H55.3833V76.3958H54.3898V72.3527L57.3702 76.3958H56.6251V79.1755H63.0828V76.3958H62.0893L58.6121 71.5946L61.8409 68.3096H63.0828V65.0245H56.6251V68.3096H57.867L54.3898 71.3419V68.3096H55.3833V65.0245H48.6772V68.3096H49.9191Z" fill="black"/>
<path d="M64.573 71.8473H65.3181L68.0502 79.1755H70.2855L71.5274 75.6378L73.0176 79.1755H75.2529L77.985 71.8473H78.7301V69.573H74.5078V71.8473H75.5013L74.5078 74.3743L72.7692 69.573H71.279L69.5404 74.3743L68.7953 71.8473H69.5404V69.573H64.573V71.8473Z" fill="black"/>
<path d="M80.2203 71.8473H81.2138V76.9012H80.2203V79.1755H86.1812V76.9012H85.1878V69.573H80.2203V71.8473Z" fill="black"/>
<path d="M81.2138 68.5623V65.2772H85.1878V68.5623H81.2138Z" fill="black"/>
<path fill-rule="evenodd" clip-rule="evenodd" d="M96.8612 74.8797C96.944 73.0266 96.2154 69.3203 92.6389 69.3203C88.1682 69.3203 87.6715 72.8581 87.6715 74.627C87.6715 75.8905 88.1682 79.4282 92.6389 79.4282C95.6193 79.4282 96.8612 76.3958 96.8612 75.8904H93.8807C93.7979 76.3116 93.4337 77.1539 92.6389 77.1539C91.6454 77.1539 91.397 76.1431 91.397 75.8904V74.8797H96.8612ZM91.397 73.3635H93.6324C93.6324 72.5827 93.4879 71.5819 92.4951 71.5819C91.7118 71.5819 91.397 72.2676 91.397 73.3635Z" fill="black"/>
<path d="M98.5998 67.5515H99.3449V76.9012H98.5998V79.1755H103.816V76.9012H103.319V75.1324H103.816L106.051 79.1755H109.28V76.9012H108.535L106.796 73.6162L108.535 71.8473H109.28V69.573H104.312V71.8473H105.057L103.816 73.3635H103.319V65.0245H98.5998V67.5515Z" fill="black"/>
<path d="M111.267 71.0892H113.005L115.737 65.0245H112.26L111.267 71.0892Z" fill="black"/>
<path d="M117.724 70.3311H120.705V68.0569H124.182C122.791 69.472 120.953 74.2058 120.208 76.3958H119.215V79.1755H125.921V76.3958H124.679C124.679 74.1721 127.328 69.91 128.653 68.0569V65.0245H117.724V70.3311Z" fill="black"/>
<path fill-rule="evenodd" clip-rule="evenodd" d="M132.378 72.1C131.716 71.6788 130.391 70.4322 130.391 68.8149C130.391 66.7934 132.13 64.7718 135.855 64.7718C139.581 64.7718 141.32 67.0461 141.32 68.8149C141.32 70.23 139.664 71.5946 138.836 72.1C139.829 72.4369 141.816 73.5656 141.816 75.3851C141.816 77.6593 139.084 79.4282 135.855 79.4282C132.378 79.4282 129.894 77.1539 129.894 75.3851C129.894 73.6162 131.7 72.4038 132.378 72.1ZM135.855 70.8365C136.678 70.8365 137.346 70.1577 137.346 69.3203C137.346 68.483 136.678 67.8042 135.855 67.8042C135.032 67.8042 134.365 68.483 134.365 69.3203C134.365 70.1577 135.032 70.8365 135.855 70.8365ZM135.832 76.6247C136.792 76.6247 137.571 75.8327 137.571 74.8558C137.571 73.8789 136.792 73.0869 135.832 73.0869C134.872 73.0869 134.093 73.8789 134.093 74.8558C134.093 75.8327 134.872 76.6247 135.832 76.6247Z" fill="black"/>
</svg>
